<?xml version="1.0" encoding="utf-8"?>
<!-- Generator: Adobe Illustrator 22.0.1, SVG Export Plug-In . SVG Version: 6.00 Build 0)  -->
<svg version="1.1" id="Layer_1" xmlns="http://www.w3.org/2000/svg" xmlns:xlink="http://www.w3.org/1999/xlink" x="0px" y="0px"
	 viewBox="0 0 512 335.2" style="enable-background:new 0 0 512 335.2;" xml:space="preserve">
<style type="text/css">
	.st0{fill:#F5F5F5;}
	.st1{fill:#FF4B55;}
	.st2{fill:#41479B;}
</style>
<path class="st0" d="M503.2,336.2H8.8c-4.9,0-8.8-4-8.8-8.8V9.6c0-4.9,4-8.8,8.8-8.8h494.3c4.9,0,8.8,4,8.8,8.8v317.8
	C512,332.2,508,336.2,503.2,336.2z"/>
<g>
	<path class="st1" d="M512,26.6H0v-17c0-4.9,4-8.8,8.8-8.8h494.3c4.9,0,8.8,4,8.8,8.8L512,26.6L512,26.6z"/>
	<rect y="104" class="st1" width="512" height="25.8"/>
	<rect y="52.4" class="st1" width="512" height="25.8"/>
	<path class="st1" d="M512,181.4H8.8c-4.9,0-8.8-4-8.8-8.8v-17h512V181.4z"/>
	<rect y="258.8" class="st1" width="512" height="25.8"/>
	<path class="st1" d="M503.2,336.2H8.8c-4.9,0-8.8-4-8.8-8.8v-17h512v17C512,332.2,508,336.2,503.2,336.2z"/>
	<rect y="207.2" class="st1" width="512" height="25.8"/>
</g>
<path class="st2" d="M229.5,0.8H8.8C4,0.8,0,4.7,0,9.6v163c0,4.9,4,8.8,8.8,8.8h220.7c4.9,0,8.8-4,8.8-8.8V9.6
	C238.3,4.7,234.4,0.8,229.5,0.8z"/>
<g>
	<path class="st0" d="M24.8,21l2,5.9l6.2,0c0.8,0,1.1,1,0.5,1.5l-5,3.7l1.9,5.9c0.2,0.8-0.6,1.4-1.3,0.9l-5-3.6l-5,3.6
		c-0.7,0.5-1.5-0.2-1.3-0.9l1.9-5.9l-5-3.7c-0.6-0.5-0.3-1.5,0.5-1.5l6.2,0l2-5.9C23.5,20.3,24.5,20.3,24.8,21z"/>
	<path class="st0" d="M24.8,51.7l2,5.9l6.2,0c0.8,0,1.1,1,0.5,1.5l-5,3.7l1.9,5.9c0.2,0.8-0.6,1.4-1.3,0.9L24,66l-5,3.6
		c-0.7,0.5-1.5-0.2-1.3-0.9l1.9-5.9l-5-3.7c-0.6-0.5-0.3-1.5,0.5-1.5l6.2,0l2-5.9C23.5,50.9,24.5,50.9,24.8,51.7z"/>
	<path class="st0" d="M24.8,82.3l2,5.9l6.2,0c0.8,0,1.1,1,0.5,1.5l-5,3.7l1.9,5.9c0.2,0.8-0.6,1.4-1.3,0.9l-5-3.6l-5,3.6
		c-0.7,0.5-1.5-0.2-1.3-0.9l1.9-5.9l-5-3.7c-0.6-0.5-0.3-1.5,0.5-1.5l6.2,0l2-5.9C23.5,81.6,24.5,81.6,24.8,82.3z"/>
	<path class="st0" d="M24.8,113l2,5.9l6.2,0c0.8,0,1.1,1,0.5,1.5l-5,3.7l1.9,5.9c0.2,0.8-0.6,1.4-1.3,0.9l-5-3.6l-5,3.6
		c-0.7,0.5-1.5-0.2-1.3-0.9l1.9-5.9l-5-3.7c-0.6-0.5-0.3-1.5,0.5-1.5l6.2,0l2-5.9C23.5,112.2,24.5,112.2,24.8,113z"/>
	<path class="st0" d="M24.8,143.6l2,5.9l6.2,0c0.8,0,1.1,1,0.5,1.5l-5,3.7l1.9,5.9c0.2,0.8-0.6,1.4-1.3,0.9l-5-3.6l-5,3.6
		c-0.7,0.5-1.5-0.2-1.3-0.9l1.9-5.9l-5-3.7c-0.6-0.5-0.3-1.5,0.5-1.5l6.2,0l2-5.9C23.5,142.9,24.5,142.9,24.8,143.6z"/>
	<path class="st0" d="M48.6,36l2,5.9l6.2,0c0.8,0,1.1,1,0.5,1.5l-5,3.7l1.9,5.9c0.2,0.8-0.6,1.4-1.3,0.9l-5-3.6l-5,3.6
		c-0.7,0.5-1.5-0.2-1.3-0.9l1.9-5.9l-5-3.7c-0.6-0.5-0.3-1.5,0.5-1.5l6.2,0l2-5.9C47.3,35.3,48.3,35.3,48.6,36z"/>
	<path class="st0" d="M48.6,66.7l2,5.9l6.2,0c0.8,0,1.1,1,0.5,1.5l-5,3.7l1.9,5.9c0.2,0.8-0.6,1.4-1.3,0.9l-5-3.6l-5,3.6
		c-0.7,0.5-1.5-0.2-1.3-0.9l1.9-5.9l-5-3.7c-0.6-0.5-0.3-1.5,0.5-1.5l6.2,0l2-5.9C47.3,65.9,48.3,65.9,48.6,66.7z"/>
	<path class="st0" d="M48.6,97.3l2,5.9l6.2,0c0.8,0,1.1,1,0.5,1.5l-5,3.7l1.9,5.9c0.2,0.8-0.6,1.4-1.3,0.9l-5-3.6l-5,3.6
		c-0.7,0.5-1.5-0.2-1.3-0.9l1.9-5.9l-5-3.7c-0.6-0.5-0.3-1.5,0.5-1.5l6.2,0l2-5.9C47.3,96.6,48.3,96.6,48.6,97.3z"/>
	<path class="st0" d="M48.6,128l2,5.9l6.2,0c0.8,0,1.1,1,0.5,1.5l-5,3.7l1.9,5.9c0.2,0.8-0.6,1.4-1.3,0.9l-5-3.6l-5,3.6
		c-0.7,0.5-1.5-0.2-1.3-0.9l1.9-5.9l-5-3.7c-0.6-0.5-0.3-1.5,0.5-1.5l6.2,0l2-5.9C47.3,127.2,48.3,127.2,48.6,128z"/>
	<path class="st0" d="M72.4,21l2,5.9l6.2,0c0.8,0,1.1,1,0.5,1.5l-5,3.7l1.9,5.9c0.2,0.8-0.6,1.4-1.3,0.9l-5-3.6l-5,3.6
		c-0.7,0.5-1.5-0.2-1.3-0.9l1.9-5.9l-5-3.7c-0.6-0.5-0.3-1.5,0.5-1.5l6.2,0l2-5.9C71,20.3,72.1,20.3,72.4,21z"/>
	<path class="st0" d="M72.4,51.7l2,5.9l6.2,0c0.8,0,1.1,1,0.5,1.5l-5,3.7l1.9,5.9c0.2,0.8-0.6,1.4-1.3,0.9l-5-3.6l-5,3.6
		c-0.7,0.5-1.5-0.2-1.3-0.9l1.9-5.9l-5-3.7c-0.6-0.5-0.3-1.5,0.5-1.5l6.2,0l2-5.9C71,50.9,72.1,50.9,72.4,51.7z"/>
	<path class="st0" d="M72.4,82.3l2,5.9l6.2,0c0.8,0,1.1,1,0.5,1.5l-5,3.7l1.9,5.9c0.2,0.8-0.6,1.4-1.3,0.9l-5-3.6l-5,3.6
		c-0.7,0.5-1.5-0.2-1.3-0.9l1.9-5.9l-5-3.7c-0.6-0.5-0.3-1.5,0.5-1.5l6.2,0l2-5.9C71,81.6,72.1,81.6,72.4,82.3z"/>
	<path class="st0" d="M72.4,113l2,5.9l6.2,0c0.8,0,1.1,1,0.5,1.5l-5,3.7l1.9,5.9c0.2,0.8-0.6,1.4-1.3,0.9l-5-3.6l-5,3.6
		c-0.7,0.5-1.5-0.2-1.3-0.9l1.9-5.9l-5-3.7c-0.6-0.5-0.3-1.5,0.5-1.5l6.2,0l2-5.9C71,112.2,72.1,112.2,72.4,113z"/>
	<path class="st0" d="M72.4,143.6l2,5.9l6.2,0c0.8,0,1.1,1,0.5,1.5l-5,3.7l1.9,5.9c0.2,0.8-0.6,1.4-1.3,0.9l-5-3.6l-5,3.6
		c-0.7,0.5-1.5-0.2-1.3-0.9l1.9-5.9l-5-3.7c-0.6-0.5-0.3-1.5,0.5-1.5l6.2,0l2-5.9C71,142.9,72.1,142.9,72.4,143.6z"/>
	<path class="st0" d="M96.2,36l2,5.9l6.2,0c0.8,0,1.1,1,0.5,1.5l-5,3.7l1.9,5.9c0.2,0.8-0.6,1.4-1.3,0.9l-5-3.6l-5,3.6
		c-0.7,0.5-1.5-0.2-1.3-0.9l1.9-5.9l-5-3.7c-0.6-0.5-0.3-1.5,0.5-1.5l6.2,0l2-5.9C94.8,35.3,95.9,35.3,96.2,36z"/>
	<path class="st0" d="M96.2,66.7l2,5.9l6.2,0c0.8,0,1.1,1,0.5,1.5l-5,3.7l1.9,5.9c0.2,0.8-0.6,1.4-1.3,0.9l-5-3.6l-5,3.6
		c-0.7,0.5-1.5-0.2-1.3-0.9l1.9-5.9l-5-3.7c-0.6-0.5-0.3-1.5,0.5-1.5l6.2,0l2-5.9C94.8,65.9,95.9,65.9,96.2,66.7z"/>
	<path class="st0" d="M96.2,97.3l2,5.9l6.2,0c0.8,0,1.1,1,0.5,1.5l-5,3.7l1.9,5.9c0.2,0.8-0.6,1.4-1.3,0.9l-5-3.6l-5,3.6
		c-0.7,0.5-1.5-0.2-1.3-0.9l1.9-5.9l-5-3.7c-0.6-0.5-0.3-1.5,0.5-1.5l6.2,0l2-5.9C94.8,96.6,95.9,96.6,96.2,97.3z"/>
	<path class="st0" d="M96.2,128l2,5.9l6.2,0c0.8,0,1.1,1,0.5,1.5l-5,3.7l1.9,5.9c0.2,0.8-0.6,1.4-1.3,0.9l-5-3.6l-5,3.6
		c-0.7,0.5-1.5-0.2-1.3-0.9l1.9-5.9l-5-3.7c-0.6-0.5-0.3-1.5,0.5-1.5l6.2,0l2-5.9C94.8,127.2,95.9,127.2,96.2,128z"/>
	<path class="st0" d="M120,21l2,5.9l6.2,0c0.8,0,1.1,1,0.5,1.5l-5,3.7l1.9,5.9c0.2,0.8-0.6,1.4-1.3,0.9l-5-3.6l-5,3.6
		c-0.7,0.5-1.5-0.2-1.3-0.9l1.9-5.9l-5-3.7c-0.6-0.5-0.3-1.5,0.5-1.5l6.2,0l2-5.9C118.6,20.3,119.7,20.3,120,21z"/>
	<path class="st0" d="M120,51.7l2,5.9l6.2,0c0.8,0,1.1,1,0.5,1.5l-5,3.7l1.9,5.9c0.2,0.8-0.6,1.4-1.3,0.9l-5-3.6l-5,3.6
		c-0.7,0.5-1.5-0.2-1.3-0.9l1.9-5.9l-5-3.7c-0.6-0.5-0.3-1.5,0.5-1.5l6.2,0l2-5.9C118.6,50.9,119.7,50.9,120,51.7z"/>
	<path class="st0" d="M120,82.3l2,5.9l6.2,0c0.8,0,1.1,1,0.5,1.5l-5,3.7l1.9,5.9c0.2,0.8-0.6,1.4-1.3,0.9l-5-3.6l-5,3.6
		c-0.7,0.5-1.5-0.2-1.3-0.9l1.9-5.9l-5-3.7c-0.6-0.5-0.3-1.5,0.5-1.5l6.2,0l2-5.9C118.6,81.6,119.7,81.6,120,82.3z"/>
	<path class="st0" d="M120,113l2,5.9l6.2,0c0.8,0,1.1,1,0.5,1.5l-5,3.7l1.9,5.9c0.2,0.8-0.6,1.4-1.3,0.9l-5-3.6l-5,3.6
		c-0.7,0.5-1.5-0.2-1.3-0.9l1.9-5.9l-5-3.7c-0.6-0.5-0.3-1.5,0.5-1.5l6.2,0l2-5.9C118.6,112.2,119.7,112.2,120,113z"/>
	<path class="st0" d="M120,143.6l2,5.9l6.2,0c0.8,0,1.1,1,0.5,1.5l-5,3.7l1.9,5.9c0.2,0.8-0.6,1.4-1.3,0.9l-5-3.6l-5,3.6
		c-0.7,0.5-1.5-0.2-1.3-0.9l1.9-5.9l-5-3.7c-0.6-0.5-0.3-1.5,0.5-1.5l6.2,0l2-5.9C118.6,142.9,119.7,142.9,120,143.6z"/>
	<path class="st0" d="M143.8,36l2,5.9l6.2,0c0.8,0,1.1,1,0.5,1.5l-5,3.7l1.9,5.9c0.2,0.8-0.6,1.4-1.3,0.9l-5-3.6l-5,3.6
		c-0.7,0.5-1.5-0.2-1.3-0.9l1.9-5.9l-5-3.7c-0.6-0.5-0.3-1.5,0.5-1.5l6.2,0l2-5.9C142.4,35.3,143.5,35.3,143.8,36z"/>
	<path class="st0" d="M143.8,66.7l2,5.9l6.2,0c0.8,0,1.1,1,0.5,1.5l-5,3.7l1.9,5.9c0.2,0.8-0.6,1.4-1.3,0.9l-5-3.6l-5,3.6
		c-0.7,0.5-1.5-0.2-1.3-0.9l1.9-5.9l-5-3.7c-0.6-0.5-0.3-1.5,0.5-1.5l6.2,0l2-5.9C142.4,65.9,143.5,65.9,143.8,66.7z"/>
	<path class="st0" d="M143.8,97.3l2,5.9l6.2,0c0.8,0,1.1,1,0.5,1.5l-5,3.7l1.9,5.9c0.2,0.8-0.6,1.4-1.3,0.9l-5-3.6l-5,3.6
		c-0.7,0.5-1.5-0.2-1.3-0.9l1.9-5.9l-5-3.7c-0.6-0.5-0.3-1.5,0.5-1.5l6.2,0l2-5.9C142.4,96.6,143.5,96.6,143.8,97.3z"/>
	<path class="st0" d="M143.8,128l2,5.9l6.2,0c0.8,0,1.1,1,0.5,1.5l-5,3.7l1.9,5.9c0.2,0.8-0.6,1.4-1.3,0.9l-5-3.6l-5,3.6
		c-0.7,0.5-1.5-0.2-1.3-0.9l1.9-5.9l-5-3.7c-0.6-0.5-0.3-1.5,0.5-1.5l6.2,0l2-5.9C142.4,127.2,143.5,127.2,143.8,128z"/>
	<path class="st0" d="M167.5,21l2,5.9l6.2,0c0.8,0,1.1,1,0.5,1.5l-5,3.7l1.9,5.9c0.2,0.8-0.6,1.4-1.3,0.9l-5-3.6l-5,3.6
		c-0.7,0.5-1.5-0.2-1.3-0.9l1.9-5.9l-5-3.7c-0.6-0.5-0.3-1.5,0.5-1.5l6.2,0l2-5.9C166.2,20.3,167.3,20.3,167.5,21z"/>
	<path class="st0" d="M167.5,51.7l2,5.9l6.2,0c0.8,0,1.1,1,0.5,1.5l-5,3.7l1.9,5.9c0.2,0.8-0.6,1.4-1.3,0.9l-5-3.6l-5,3.6
		c-0.7,0.5-1.5-0.2-1.3-0.9l1.9-5.9l-5-3.7c-0.6-0.5-0.3-1.5,0.5-1.5l6.2,0l2-5.9C166.2,50.9,167.3,50.9,167.5,51.7z"/>
	<path class="st0" d="M167.5,82.3l2,5.9l6.2,0c0.8,0,1.1,1,0.5,1.5l-5,3.7l1.9,5.9c0.2,0.8-0.6,1.4-1.3,0.9l-5-3.6l-5,3.6
		c-0.7,0.5-1.5-0.2-1.3-0.9l1.9-5.9l-5-3.7c-0.6-0.5-0.3-1.5,0.5-1.5l6.2,0l2-5.9C166.2,81.6,167.3,81.6,167.5,82.3z"/>
	<path class="st0" d="M167.5,113l2,5.9l6.2,0c0.8,0,1.1,1,0.5,1.5l-5,3.7l1.9,5.9c0.2,0.8-0.6,1.4-1.3,0.9l-5-3.6l-5,3.6
		c-0.7,0.5-1.5-0.2-1.3-0.9l1.9-5.9l-5-3.7c-0.6-0.5-0.3-1.5,0.5-1.5l6.2,0l2-5.9C166.2,112.2,167.3,112.2,167.5,113z"/>
	<path class="st0" d="M167.5,143.6l2,5.9l6.2,0c0.8,0,1.1,1,0.5,1.5l-5,3.7l1.9,5.9c0.2,0.8-0.6,1.4-1.3,0.9l-5-3.6l-5,3.6
		c-0.7,0.5-1.5-0.2-1.3-0.9l1.9-5.9l-5-3.7c-0.6-0.5-0.3-1.5,0.5-1.5l6.2,0l2-5.9C166.2,142.9,167.3,142.9,167.5,143.6z"/>
	<path class="st0" d="M191.3,36l2,5.9l6.2,0c0.8,0,1.1,1,0.5,1.5l-5,3.7l1.9,5.9c0.2,0.8-0.6,1.4-1.3,0.9l-5-3.6l-5,3.6
		c-0.7,0.5-1.5-0.2-1.3-0.9l1.9-5.9l-5-3.7c-0.6-0.5-0.3-1.5,0.5-1.5l6.2,0l2-5.9C190,35.3,191.1,35.3,191.3,36z"/>
	<path class="st0" d="M191.3,66.7l2,5.9l6.2,0c0.8,0,1.1,1,0.5,1.5l-5,3.7l1.9,5.9c0.2,0.8-0.6,1.4-1.3,0.9l-5-3.6l-5,3.6
		c-0.7,0.5-1.5-0.2-1.3-0.9l1.9-5.9l-5-3.7c-0.6-0.5-0.3-1.5,0.5-1.5l6.2,0l2-5.9C190,65.9,191.1,65.9,191.3,66.7z"/>
	<path class="st0" d="M191.3,97.3l2,5.9l6.2,0c0.8,0,1.1,1,0.5,1.5l-5,3.7l1.9,5.9c0.2,0.8-0.6,1.4-1.3,0.9l-5-3.6l-5,3.6
		c-0.7,0.5-1.5-0.2-1.3-0.9l1.9-5.9l-5-3.7c-0.6-0.5-0.3-1.5,0.5-1.5l6.2,0l2-5.9C190,96.6,191.1,96.6,191.3,97.3z"/>
	<path class="st0" d="M191.3,128l2,5.9l6.2,0c0.8,0,1.1,1,0.5,1.5l-5,3.7l1.9,5.9c0.2,0.8-0.6,1.4-1.3,0.9l-5-3.6l-5,3.6
		c-0.7,0.5-1.5-0.2-1.3-0.9l1.9-5.9l-5-3.7c-0.6-0.5-0.3-1.5,0.5-1.5l6.2,0l2-5.9C190,127.2,191.1,127.2,191.3,128z"/>
	<path class="st0" d="M215.1,21l2,5.9l6.2,0c0.8,0,1.1,1,0.5,1.5l-5,3.7l1.9,5.9c0.2,0.8-0.6,1.4-1.3,0.9l-5-3.6l-5,3.6
		c-0.7,0.5-1.5-0.2-1.3-0.9l1.9-5.9l-5-3.7c-0.6-0.5-0.3-1.5,0.5-1.5l6.2,0l2-5.9C213.8,20.3,214.9,20.3,215.1,21z"/>
	<path class="st0" d="M215.1,51.7l2,5.9l6.2,0c0.8,0,1.1,1,0.5,1.5l-5,3.7l1.9,5.9c0.2,0.8-0.6,1.4-1.3,0.9l-5-3.6l-5,3.6
		c-0.7,0.5-1.5-0.2-1.3-0.9l1.9-5.9l-5-3.7c-0.6-0.5-0.3-1.5,0.5-1.5l6.2,0l2-5.9C213.8,50.9,214.9,50.9,215.1,51.7z"/>
	<path class="st0" d="M215.1,82.3l2,5.9l6.2,0c0.8,0,1.1,1,0.5,1.5l-5,3.7l1.9,5.9c0.2,0.8-0.6,1.4-1.3,0.9l-5-3.6l-5,3.6
		c-0.7,0.5-1.5-0.2-1.3-0.9l1.9-5.9l-5-3.7c-0.6-0.5-0.3-1.5,0.5-1.5l6.2,0l2-5.9C213.8,81.6,214.9,81.6,215.1,82.3z"/>
	<path class="st0" d="M215.1,113l2,5.9l6.2,0c0.8,0,1.1,1,0.5,1.5l-5,3.7l1.9,5.9c0.2,0.8-0.6,1.4-1.3,0.9l-5-3.6l-5,3.6
		c-0.7,0.5-1.5-0.2-1.3-0.9l1.9-5.9l-5-3.7c-0.6-0.5-0.3-1.5,0.5-1.5l6.2,0l2-5.9C213.8,112.2,214.9,112.2,215.1,113z"/>
	<path class="st0" d="M215.1,143.6l2,5.9l6.2,0c0.8,0,1.1,1,0.5,1.5l-5,3.7l1.9,5.9c0.2,0.8-0.6,1.4-1.3,0.9l-5-3.6l-5,3.6
		c-0.7,0.5-1.5-0.2-1.3-0.9l1.9-5.9l-5-3.7c-0.6-0.5-0.3-1.5,0.5-1.5l6.2,0l2-5.9C213.8,142.9,214.9,142.9,215.1,143.6z"/>
</g>
</svg>
