<svg width="900" height="600" viewBox="0 0 900 600" fill="none" xmlns="http://www.w3.org/2000/svg">
<g clip-path="url(#clip0_18_488)">
<g clip-path="url(#clip1_18_488)">
<path d="M884.531 601.787H15.4688C6.85547 601.787 0 594.639 0 586.061V18.1551C0 9.39884 7.03125 2.42957 15.4688 2.42957H884.355C892.969 2.42957 899.824 9.57754 899.824 18.1551V586.061C900 594.639 892.969 601.787 884.531 601.787Z" fill="#F5F5F5"/>
<path d="M900 48.534H0V18.1551C0 9.39884 7.03125 2.42957 15.4688 2.42957H884.355C892.969 2.42957 899.824 9.57754 899.824 18.1551L900 48.534Z" fill="#FF4B55"/>
<path d="M900 186.847H0V232.952H900V186.847Z" fill="#FF4B55"/>
<path d="M900 94.6384H0V140.743H900V94.6384Z" fill="#FF4B55"/>
<path d="M900 325.16H15.4688C6.85547 325.16 0 318.012 0 309.435V279.056H900V325.16Z" fill="#FF4B55"/>
<path d="M900 463.474H0V509.578H900V463.474Z" fill="#FF4B55"/>
<path d="M884.531 601.787H15.4688C6.85547 601.787 0 594.639 0 586.061V555.682H900V586.061C900 594.639 892.969 601.787 884.531 601.787Z" fill="#FF4B55"/>
<path d="M900 371.265H0V417.369H900V371.265Z" fill="#FF4B55"/>
<path d="M403.418 2.42957H15.4688C7.03125 2.42957 0 9.39884 0 18.1551V309.435C0 318.191 7.03125 325.16 15.4688 325.16H403.418C412.031 325.16 418.887 318.012 418.887 309.435V18.1551C418.887 9.39884 412.031 2.42957 403.418 2.42957Z" fill="#41479B"/>
<path d="M43.5936 38.5269L47.1092 49.0701H58.0076C59.4139 49.0701 59.9412 50.8571 58.8865 51.7506L50.0975 58.3625L53.4373 68.9057C53.7889 70.3353 52.3826 71.4075 51.1522 70.514L42.3631 64.0809L33.574 70.514C32.3436 71.4075 30.9373 70.1566 31.2889 68.9057L34.6287 58.3625L25.8397 51.7506C24.785 50.8571 25.3123 49.0701 26.7186 49.0701H37.617L41.1326 38.5269C41.3084 37.276 43.0662 37.276 43.5936 38.5269Z" fill="#F5F5F5"/>
<path d="M43.5938 93.3876L47.1094 103.931H58.0078C59.4141 103.931 59.9414 105.718 58.8867 106.611L50.0977 113.223L53.4375 123.766C53.7891 125.196 52.3828 126.268 51.1524 125.375L42.1875 118.942L33.3984 125.375C32.168 126.268 30.7617 125.017 31.1133 123.766L34.4531 113.223L25.6641 106.611C24.6094 105.718 25.1367 103.931 26.543 103.931H37.4414L40.957 93.3876C41.3086 91.958 43.0664 91.958 43.5938 93.3876Z" fill="#F5F5F5"/>
<path d="M43.5938 148.07L47.1094 158.613H58.0078C59.4141 158.613 59.9414 160.4 58.8867 161.293L50.0977 167.905L53.4375 178.448C53.7891 179.878 52.3828 180.95 51.1524 180.057L42.3633 173.624L33.5742 180.057C32.3438 180.95 30.9375 179.699 31.2891 178.448L34.6289 167.905L25.8399 161.293C24.7852 160.4 25.3125 158.613 26.7188 158.613H37.6172L41.1328 148.07C41.3086 146.819 43.0664 146.819 43.5938 148.07Z" fill="#F5F5F5"/>
<path d="M43.5938 202.93L47.1094 213.473H58.0078C59.4141 213.473 59.9414 215.26 58.8867 216.154L50.0977 222.766L53.4375 233.309C53.7891 234.739 52.3828 235.811 51.1524 234.917L42.3633 228.484L33.5742 234.917C32.3438 235.811 30.9375 234.56 31.2891 233.309L34.6289 222.766L25.8399 216.154C24.7852 215.26 25.3125 213.473 26.7188 213.473H37.6172L41.1328 202.93C41.3086 201.501 43.0664 201.501 43.5938 202.93Z" fill="#F5F5F5"/>
<path d="M43.5938 257.612L47.1094 268.155H58.0078C59.4141 268.155 59.9414 269.942 58.8867 270.836L50.0977 277.448L53.4375 287.991C53.7891 289.421 52.3828 290.493 51.1524 289.599L42.3633 283.166L33.5742 289.599C32.3438 290.493 30.9375 289.242 31.2891 287.991L34.6289 277.448L25.8399 270.836C24.7852 269.942 25.3125 268.155 26.7188 268.155H37.6172L41.1328 257.612C41.3086 256.361 43.0664 256.361 43.5938 257.612Z" fill="#F5F5F5"/>
<path d="M85.4297 65.3317L88.9453 75.875H99.8438C101.25 75.875 101.777 77.662 100.723 78.5555L91.9336 85.1673L95.2734 95.7106C95.625 97.1402 94.2188 98.2124 92.9883 97.3189L84.1992 90.8857L75.4102 97.3189C74.1797 98.2124 72.7734 96.9615 73.125 95.7106L76.4649 85.1673L67.6758 78.5555C66.6211 77.662 67.1484 75.875 68.5547 75.875H79.4531L82.9688 65.3317C83.1445 64.0808 84.9024 64.0808 85.4297 65.3317Z" fill="#F5F5F5"/>
<path d="M85.4297 120.192L88.9453 130.736H99.8438C101.25 130.736 101.777 132.523 100.723 133.416L91.9336 140.028L95.2734 150.571C95.625 152.001 94.2188 153.073 92.9883 152.18L84.1992 145.746L75.4102 152.18C74.1797 153.073 72.7734 151.822 73.125 150.571L76.4649 140.028L67.6758 133.416C66.6211 132.523 67.1484 130.736 68.5547 130.736H79.4531L82.9688 120.192C83.1445 118.763 84.9024 118.763 85.4297 120.192Z" fill="#F5F5F5"/>
<path d="M85.4297 174.874L88.9453 185.418H99.8438C101.25 185.418 101.777 187.205 100.723 188.098L91.9336 194.71L95.2734 205.253C95.625 206.683 94.2188 207.755 92.9883 206.862L84.1992 200.428L75.4102 206.862C74.1797 207.755 72.7734 206.504 73.125 205.253L76.4649 194.71L67.6758 188.098C66.6211 187.205 67.1484 185.418 68.5547 185.418H79.4531L82.9688 174.874C83.1445 173.623 84.9024 173.623 85.4297 174.874Z" fill="#F5F5F5"/>
<path d="M85.4297 229.735L88.9453 240.278H99.8438C101.25 240.278 101.777 242.065 100.723 242.959L91.9336 249.571L95.2734 260.114C95.625 261.544 94.2188 262.616 92.9883 261.722L84.1992 255.289L75.4102 261.722C74.1797 262.616 72.7734 261.365 73.125 260.114L76.4649 249.571L67.6758 242.959C66.6211 242.065 67.1484 240.278 68.5547 240.278H79.4531L82.9688 229.735C83.1445 228.306 84.9024 228.306 85.4297 229.735Z" fill="#F5F5F5"/>
<path d="M127.266 38.5269L130.781 49.0701H141.68C143.086 49.0701 143.613 50.8571 142.559 51.7506L133.77 58.3625L137.109 68.9057C137.461 70.3353 136.055 71.4075 134.824 70.514L126.035 64.0809L117.246 70.514C116.016 71.4075 114.609 70.1566 114.961 68.9057L118.301 58.3625L109.512 51.7506C108.457 50.8571 108.984 49.0701 110.391 49.0701H121.289L124.805 38.5269C124.805 37.276 126.738 37.276 127.266 38.5269Z" fill="#F5F5F5"/>
<path d="M127.266 93.3876L130.781 103.931H141.68C143.086 103.931 143.613 105.718 142.559 106.611L133.77 113.223L137.109 123.766C137.461 125.196 136.055 126.268 134.824 125.375L126.035 118.942L117.246 125.375C116.016 126.268 114.609 125.017 114.961 123.766L118.301 113.223L109.512 106.611C108.457 105.718 108.984 103.931 110.391 103.931H121.289L124.805 93.3876C124.805 91.958 126.738 91.958 127.266 93.3876Z" fill="#F5F5F5"/>
<path d="M127.266 148.07L130.781 158.613H141.68C143.086 158.613 143.613 160.4 142.559 161.293L133.77 167.905L137.109 178.448C137.461 179.878 136.055 180.95 134.824 180.057L126.035 173.624L117.246 180.057C116.016 180.95 114.609 179.699 114.961 178.448L118.301 167.905L109.512 161.293C108.457 160.4 108.984 158.613 110.391 158.613H121.289L124.805 148.07C124.805 146.819 126.738 146.819 127.266 148.07Z" fill="#F5F5F5"/>
<path d="M127.266 202.93L130.781 213.473H141.68C143.086 213.473 143.613 215.26 142.559 216.154L133.77 222.766L137.109 233.309C137.461 234.739 136.055 235.811 134.824 234.917L126.035 228.484L117.246 234.917C116.016 235.811 114.609 234.56 114.961 233.309L118.301 222.766L109.512 216.154C108.457 215.26 108.984 213.473 110.391 213.473H121.289L124.805 202.93C124.805 201.501 126.738 201.501 127.266 202.93Z" fill="#F5F5F5"/>
<path d="M127.266 257.612L130.781 268.155H141.68C143.086 268.155 143.613 269.942 142.559 270.836L133.77 277.448L137.109 287.991C137.461 289.421 136.055 290.493 134.824 289.599L126.035 283.166L117.246 289.599C116.016 290.493 114.609 289.242 114.961 287.991L118.301 277.448L109.512 270.836C108.457 269.942 108.984 268.155 110.391 268.155H121.289L124.805 257.612C124.805 256.361 126.738 256.361 127.266 257.612Z" fill="#F5F5F5"/>
<path d="M169.102 65.3317L172.617 75.875H183.516C184.922 75.875 185.449 77.662 184.395 78.5555L175.605 85.1673L178.945 95.7106C179.297 97.1402 177.891 98.2124 176.66 97.3189L167.871 90.8857L159.082 97.3189C157.852 98.2124 156.445 96.9615 156.797 95.7106L160.137 85.1673L151.348 78.5555C150.293 77.662 150.82 75.875 152.227 75.875H163.125L166.641 65.3317C166.641 64.0808 168.574 64.0808 169.102 65.3317Z" fill="#F5F5F5"/>
<path d="M169.102 120.192L172.617 130.736H183.516C184.922 130.736 185.449 132.523 184.395 133.416L175.605 140.028L178.945 150.571C179.297 152.001 177.891 153.073 176.66 152.18L167.871 145.746L159.082 152.18C157.852 153.073 156.445 151.822 156.797 150.571L160.137 140.028L151.348 133.416C150.293 132.523 150.82 130.736 152.227 130.736H163.125L166.641 120.192C166.641 118.763 168.574 118.763 169.102 120.192Z" fill="#F5F5F5"/>
<path d="M169.102 174.874L172.617 185.418H183.516C184.922 185.418 185.449 187.205 184.395 188.098L175.605 194.71L178.945 205.253C179.297 206.683 177.891 207.755 176.66 206.862L167.871 200.428L159.082 206.862C157.852 207.755 156.445 206.504 156.797 205.253L160.137 194.71L151.348 188.098C150.293 187.205 150.82 185.418 152.227 185.418H163.125L166.641 174.874C166.641 173.623 168.574 173.623 169.102 174.874Z" fill="#F5F5F5"/>
<path d="M169.102 229.735L172.617 240.278H183.516C184.922 240.278 185.449 242.065 184.395 242.959L175.605 249.571L178.945 260.114C179.297 261.544 177.891 262.616 176.66 261.722L167.871 255.289L159.082 261.722C157.852 262.616 156.445 261.365 156.797 260.114L160.137 249.571L151.348 242.959C150.293 242.065 150.82 240.278 152.227 240.278H163.125L166.641 229.735C166.641 228.306 168.574 228.306 169.102 229.735Z" fill="#F5F5F5"/>
<path d="M210.938 38.5269L214.453 49.0701H225.352C226.758 49.0701 227.285 50.8571 226.23 51.7506L217.441 58.3625L220.781 68.9057C221.133 70.3353 219.727 71.4075 218.496 70.514L209.707 64.0809L200.918 70.514C199.688 71.4075 198.281 70.1566 198.633 68.9057L201.973 58.3625L193.184 51.7506C192.129 50.8571 192.656 49.0701 194.063 49.0701H204.961L208.477 38.5269C208.477 37.276 210.41 37.276 210.938 38.5269Z" fill="#F5F5F5"/>
<path d="M210.938 93.3876L214.453 103.931H225.352C226.758 103.931 227.285 105.718 226.23 106.611L217.441 113.223L220.781 123.766C221.133 125.196 219.727 126.268 218.496 125.375L209.707 118.942L200.918 125.375C199.688 126.268 198.281 125.017 198.633 123.766L201.973 113.223L193.184 106.611C192.129 105.718 192.656 103.931 194.063 103.931H204.961L208.477 93.3876C208.477 91.958 210.41 91.958 210.938 93.3876Z" fill="#F5F5F5"/>
<path d="M210.938 148.07L214.453 158.613H225.352C226.758 158.613 227.285 160.4 226.23 161.293L217.441 167.905L220.781 178.448C221.133 179.878 219.727 180.95 218.496 180.057L209.707 173.624L200.918 180.057C199.688 180.95 198.281 179.699 198.633 178.448L201.973 167.905L193.184 161.293C192.129 160.4 192.656 158.613 194.063 158.613H204.961L208.477 148.07C208.477 146.819 210.41 146.819 210.938 148.07Z" fill="#F5F5F5"/>
<path d="M210.938 202.93L214.453 213.473H225.352C226.758 213.473 227.285 215.26 226.23 216.154L217.441 222.766L220.781 233.309C221.133 234.739 219.727 235.811 218.496 234.917L209.707 228.484L200.918 234.917C199.688 235.811 198.281 234.56 198.633 233.309L201.973 222.766L193.184 216.154C192.129 215.26 192.656 213.473 194.063 213.473H204.961L208.477 202.93C208.477 201.501 210.41 201.501 210.938 202.93Z" fill="#F5F5F5"/>
<path d="M210.938 257.612L214.453 268.155H225.352C226.758 268.155 227.285 269.942 226.23 270.836L217.441 277.448L220.781 287.991C221.133 289.421 219.727 290.493 218.496 289.599L209.707 283.166L200.918 289.599C199.688 290.493 198.281 289.242 198.633 287.991L201.973 277.448L193.184 270.836C192.129 269.942 192.656 268.155 194.063 268.155H204.961L208.477 257.612C208.477 256.361 210.41 256.361 210.938 257.612Z" fill="#F5F5F5"/>
<path d="M252.773 65.3317L256.289 75.875H267.188C268.594 75.875 269.121 77.662 268.066 78.5555L259.277 85.1673L262.617 95.7106C262.969 97.1402 261.563 98.2124 260.332 97.3189L251.543 90.8857L242.754 97.3189C241.523 98.2124 240.117 96.9615 240.469 95.7106L243.809 85.1673L235.02 78.5555C233.965 77.662 234.492 75.875 235.898 75.875H246.797L250.313 65.3317C250.313 64.0808 252.246 64.0808 252.773 65.3317Z" fill="#F5F5F5"/>
<path d="M252.773 120.192L256.289 130.736H267.188C268.594 130.736 269.121 132.523 268.066 133.416L259.277 140.028L262.617 150.571C262.969 152.001 261.563 153.073 260.332 152.18L251.543 145.746L242.754 152.18C241.523 153.073 240.117 151.822 240.469 150.571L243.809 140.028L235.02 133.416C233.965 132.523 234.492 130.736 235.898 130.736H246.797L250.313 120.192C250.313 118.763 252.246 118.763 252.773 120.192Z" fill="#F5F5F5"/>
<path d="M252.773 174.874L256.289 185.418H267.188C268.594 185.418 269.121 187.205 268.066 188.098L259.277 194.71L262.617 205.253C262.969 206.683 261.563 207.755 260.332 206.862L251.543 200.428L242.754 206.862C241.523 207.755 240.117 206.504 240.469 205.253L243.809 194.71L235.02 188.098C233.965 187.205 234.492 185.418 235.898 185.418H246.797L250.313 174.874C250.313 173.623 252.246 173.623 252.773 174.874Z" fill="#F5F5F5"/>
<path d="M252.773 229.735L256.289 240.278H267.188C268.594 240.278 269.121 242.065 268.066 242.959L259.277 249.571L262.617 260.114C262.969 261.544 261.563 262.616 260.332 261.722L251.543 255.289L242.754 261.722C241.523 262.616 240.117 261.365 240.469 260.114L243.809 249.571L235.02 242.959C233.965 242.065 234.492 240.278 235.898 240.278H246.797L250.313 229.735C250.313 228.306 252.246 228.306 252.773 229.735Z" fill="#F5F5F5"/>
<path d="M294.434 38.5269L297.949 49.0701H308.848C310.254 49.0701 310.781 50.8571 309.727 51.7506L300.937 58.3625L304.277 68.9057C304.629 70.3353 303.223 71.4075 301.992 70.514L293.203 64.0809L284.414 70.514C283.184 71.4075 281.777 70.1566 282.129 68.9057L285.469 58.3625L276.68 51.7506C275.625 50.8571 276.152 49.0701 277.559 49.0701H288.457L291.973 38.5269C292.148 37.276 294.082 37.276 294.434 38.5269Z" fill="#F5F5F5"/>
<path d="M294.434 93.3876L297.949 103.931H308.848C310.254 103.931 310.781 105.718 309.727 106.611L300.937 113.223L304.277 123.766C304.629 125.196 303.223 126.268 301.992 125.375L293.203 118.942L284.414 125.375C283.184 126.268 281.777 125.017 282.129 123.766L285.469 113.223L276.68 106.611C275.625 105.718 276.152 103.931 277.559 103.931H288.457L291.973 93.3876C292.148 91.958 294.082 91.958 294.434 93.3876Z" fill="#F5F5F5"/>
<path d="M294.434 148.07L297.949 158.613H308.848C310.254 158.613 310.781 160.4 309.727 161.293L300.937 167.905L304.277 178.448C304.629 179.878 303.223 180.95 301.992 180.057L293.203 173.624L284.414 180.057C283.184 180.95 281.777 179.699 282.129 178.448L285.469 167.905L276.68 161.293C275.625 160.4 276.152 158.613 277.559 158.613H288.457L291.973 148.07C292.148 146.819 294.082 146.819 294.434 148.07Z" fill="#F5F5F5"/>
<path d="M294.434 202.93L297.949 213.473H308.848C310.254 213.473 310.781 215.26 309.727 216.154L300.937 222.766L304.277 233.309C304.629 234.739 303.223 235.811 301.992 234.917L293.203 228.484L284.414 234.917C283.184 235.811 281.777 234.56 282.129 233.309L285.469 222.766L276.68 216.154C275.625 215.26 276.152 213.473 277.559 213.473H288.457L291.973 202.93C292.148 201.501 294.082 201.501 294.434 202.93Z" fill="#F5F5F5"/>
<path d="M294.434 257.612L297.949 268.155H308.848C310.254 268.155 310.781 269.942 309.727 270.836L300.937 277.448L304.277 287.991C304.629 289.421 303.223 290.493 301.992 289.599L293.203 283.166L284.414 289.599C283.184 290.493 281.777 289.242 282.129 287.991L285.469 277.448L276.68 270.836C275.625 269.942 276.152 268.155 277.559 268.155H288.457L291.973 257.612C292.148 256.361 294.082 256.361 294.434 257.612Z" fill="#F5F5F5"/>
<path d="M336.27 65.3317L339.785 75.875H350.684C352.09 75.875 352.617 77.662 351.563 78.5555L342.773 85.1673L346.113 95.7106C346.465 97.1402 345.059 98.2124 343.828 97.3189L335.039 90.8857L326.25 97.3189C325.02 98.2124 323.613 96.9615 323.965 95.7106L327.305 85.1673L318.516 78.5555C317.461 77.662 317.988 75.875 319.395 75.875H330.293L333.809 65.3317C333.984 64.0808 335.918 64.0808 336.27 65.3317Z" fill="#F5F5F5"/>
<path d="M336.27 120.192L339.785 130.736H350.684C352.09 130.736 352.617 132.523 351.563 133.416L342.773 140.028L346.113 150.571C346.465 152.001 345.059 153.073 343.828 152.18L335.039 145.746L326.25 152.18C325.02 153.073 323.613 151.822 323.965 150.571L327.305 140.028L318.516 133.416C317.461 132.523 317.988 130.736 319.395 130.736H330.293L333.809 120.192C333.984 118.763 335.918 118.763 336.27 120.192Z" fill="#F5F5F5"/>
<path d="M336.27 174.874L339.785 185.418H350.684C352.09 185.418 352.617 187.205 351.563 188.098L342.773 194.71L346.113 205.253C346.465 206.683 345.059 207.755 343.828 206.862L335.039 200.428L326.25 206.862C325.02 207.755 323.613 206.504 323.965 205.253L327.305 194.71L318.516 188.098C317.461 187.205 317.988 185.418 319.395 185.418H330.293L333.809 174.874C333.984 173.623 335.918 173.623 336.27 174.874Z" fill="#F5F5F5"/>
<path d="M336.27 229.735L339.785 240.278H350.684C352.09 240.278 352.617 242.065 351.563 242.959L342.773 249.571L346.113 260.114C346.465 261.544 345.059 262.616 343.828 261.722L335.039 255.289L326.25 261.722C325.02 262.616 323.613 261.365 323.965 260.114L327.305 249.571L318.516 242.959C317.461 242.065 317.988 240.278 319.395 240.278H330.293L333.809 229.735C333.984 228.306 335.918 228.306 336.27 229.735Z" fill="#F5F5F5"/>
<path d="M378.105 38.5269L381.621 49.0701H392.52C393.926 49.0701 394.453 50.8571 393.398 51.7506L384.609 58.3625L387.949 68.9057C388.301 70.3353 386.894 71.4075 385.664 70.514L376.875 64.0809L368.086 70.514C366.855 71.4075 365.449 70.1566 365.801 68.9057L369.141 58.3625L360.352 51.7506C359.297 50.8571 359.824 49.0701 361.23 49.0701H372.129L375.645 38.5269C375.82 37.276 377.754 37.276 378.105 38.5269Z" fill="#F5F5F5"/>
<path d="M378.105 93.3876L381.621 103.931H392.52C393.926 103.931 394.453 105.718 393.398 106.611L384.609 113.223L387.949 123.766C388.301 125.196 386.894 126.268 385.664 125.375L376.875 118.942L368.086 125.375C366.855 126.268 365.449 125.017 365.801 123.766L369.141 113.223L360.352 106.611C359.297 105.718 359.824 103.931 361.23 103.931H372.129L375.645 93.3876C375.82 91.958 377.754 91.958 378.105 93.3876Z" fill="#F5F5F5"/>
<path d="M378.105 148.07L381.621 158.613H392.52C393.926 158.613 394.453 160.4 393.398 161.293L384.609 167.905L387.949 178.448C388.301 179.878 386.894 180.95 385.664 180.057L376.875 173.624L368.086 180.057C366.855 180.95 365.449 179.699 365.801 178.448L369.141 167.905L360.352 161.293C359.297 160.4 359.824 158.613 361.23 158.613H372.129L375.645 148.07C375.82 146.819 377.754 146.819 378.105 148.07Z" fill="#F5F5F5"/>
<path d="M378.105 202.93L381.621 213.473H392.52C393.926 213.473 394.453 215.26 393.398 216.154L384.609 222.766L387.949 233.309C388.301 234.739 386.894 235.811 385.664 234.917L376.875 228.484L368.086 234.917C366.855 235.811 365.449 234.56 365.801 233.309L369.141 222.766L360.352 216.154C359.297 215.26 359.824 213.473 361.23 213.473H372.129L375.645 202.93C375.82 201.501 377.754 201.501 378.105 202.93Z" fill="#F5F5F5"/>
<path d="M378.105 257.612L381.621 268.155H392.52C393.926 268.155 394.453 269.942 393.398 270.836L384.609 277.448L387.949 287.991C388.301 289.421 386.894 290.493 385.664 289.599L376.875 283.166L368.086 289.599C366.855 290.493 365.449 289.242 365.801 287.991L369.141 277.448L360.352 270.836C359.297 269.942 359.824 268.155 361.23 268.155H372.129L375.645 257.612C375.82 256.361 377.754 256.361 378.105 257.612Z" fill="#F5F5F5"/>
</g>
<mask id="mask0_18_488" style="mask-type:alpha" maskUnits="userSpaceOnUse" x="-1" y="0" width="901" height="600">
<path d="M900 0L239.558 600H-1L-1 0L900 0Z" fill="#D9D9D9"/>
</mask>
<g mask="url(#mask0_18_488)">
<path d="M39 1C17.4609 1 0 18.4609 0 40V561C0 582.539 17.4609 600 39 600H861C882.539 600 900 582.539 900 561V40C900 18.4609 882.539 1 861 1H39Z" fill="white"/>
<path d="M231.587 65.1453L148.382 189.745ZM179.584 210.511L262.789 85.9119ZM293.991 106.679L210.786 231.278ZM606.009 494.322L644.145 437.213ZM651.079 426.83L689.214 369.722ZM720.416 390.489L682.281 447.597ZM675.347 457.98L637.211 515.088ZM668.413 535.855L706.549 478.747ZM713.483 468.363L751.618 411.255Z" fill="black"/>
<path d="M231.587 65.1453L148.382 189.745M179.584 210.511L262.789 85.9119M293.991 106.679L210.786 231.278M606.009 494.322L644.145 437.213M651.079 426.83L689.214 369.722M720.416 390.489L682.281 447.597M675.347 457.98L637.211 515.088M668.413 535.855L706.549 478.747M713.483 468.363L751.618 411.255" stroke="black" stroke-width="25"/>
<path d="M148.382 411.255L231.587 535.855ZM262.789 515.088L224.653 457.98ZM217.719 447.597L179.584 390.489ZM210.786 369.722L293.991 494.321ZM689.214 231.278L651.079 174.17ZM644.145 163.787L606.009 106.678ZM637.211 85.9119L720.416 210.511ZM751.618 189.745L713.483 132.637ZM706.549 122.253L668.413 65.1453Z" fill="black"/>
<path d="M148.382 411.255L231.587 535.855M262.789 515.088L224.653 457.98M217.719 447.597L179.584 390.489M210.786 369.722L293.991 494.321M689.214 231.278L651.079 174.17M644.145 163.787L606.009 106.678M637.211 85.9119L720.416 210.511M751.618 189.745L713.483 132.637M706.549 122.253L668.413 65.1453" stroke="black" stroke-width="25"/>
<path d="M512.404 342.033C495.853 366.818 470.119 384.023 440.861 389.865C411.604 395.707 381.22 389.706 356.394 373.183C331.569 356.66 314.334 330.968 308.483 301.76C302.631 272.551 308.642 242.218 325.192 217.434C347.26 184.388 381.573 161.447 420.583 153.658C459.593 145.869 500.104 153.87 533.205 175.9C566.306 197.931 589.285 232.187 597.087 271.132C604.889 310.077 596.875 350.521 574.808 383.566" fill="#CD2E3A"/>
<path d="M450 300.5C461.034 283.977 478.19 272.507 497.695 268.612C517.2 264.718 537.456 268.718 554.006 279.733C570.557 290.749 582.046 307.877 585.947 327.349C589.848 346.821 585.841 367.043 574.808 383.566C552.74 416.612 518.427 439.553 479.417 447.342C440.408 455.131 399.896 447.13 366.795 425.1C333.694 403.069 310.715 368.813 302.913 329.868C295.111 290.923 303.125 250.479 325.192 217.434C314.159 233.957 310.152 254.179 314.053 273.651C317.954 293.123 329.443 310.251 345.994 321.267C362.544 332.282 382.8 336.282 402.305 332.388C421.81 328.493 438.966 317.023 450 300.5Z" fill="#0047A0"/>
</g>
</g>
<defs>
<clipPath id="clip0_18_488">
<rect width="900" height="600" fill="white"/>
</clipPath>
<clipPath id="clip1_18_488">
<rect y="1" width="900" height="599" rx="39" fill="white"/>
</clipPath>
</defs>
</svg>
