<svg width="900" height="600" viewBox="0 0 900 600" fill="none" xmlns="http://www.w3.org/2000/svg">
<g clip-path="url(#clip0_18_210)">
<path d="M832.601 0H66.399C29.268 0 -1 30.5903 -1 68.5152V200H900V68.5152C900 30.5903 869.732 0 832.601 0Z" fill="#464655"/>
<path d="M-1 531.485C-1 569.41 29.268 600 66.399 600H832.425C869.732 600 899.824 569.231 899.824 531.485V400H-1V531.485Z" fill="#FFE15A"/>
<path d="M900 200H-1V400H900V200Z" fill="#FF4B55"/>
<mask id="mask0_18_210" style="mask-type:alpha" maskUnits="userSpaceOnUse" x="-442" y="-51" width="1342" height="674">
<path d="M900 -51L-83.699 623L-442 623L-442 -51L900 -51Z" fill="#D9D9D9"/>
</mask>
<g mask="url(#mask0_18_210)">
<path d="M66 0C28.9969 0 -1 29.9969 -1 67V533C-1 570.003 28.9969 600 66 600H833C870.003 600 900 570.003 900 533V67C900 29.9969 870.003 0 833 0H66Z" fill="white"/>
<path d="M230.844 64.2524L147.547 189.06ZM178.783 209.861L262.081 85.0537ZM293.317 105.855L210.02 230.663ZM605.683 494.145L643.861 436.942ZM650.802 426.541L688.98 369.338ZM720.217 390.139L682.039 447.342ZM675.098 457.743L636.919 514.946ZM668.156 535.748L706.334 478.544ZM713.276 468.144L751.454 410.94Z" fill="black"/>
<path d="M230.844 64.2524L147.547 189.06M178.783 209.861L262.081 85.0537M293.317 105.855L210.02 230.663M605.683 494.145L643.861 436.942M650.802 426.541L688.98 369.338M720.217 390.139L682.039 447.342M675.098 457.743L636.919 514.946M668.156 535.748L706.334 478.544M713.276 468.144L751.454 410.94" stroke="black" stroke-width="25"/>
<path d="M147.547 410.94L230.844 535.748ZM262.081 514.946L223.903 457.743ZM216.961 447.342L178.783 390.139ZM210.02 369.338L293.317 494.145ZM688.98 230.663L650.802 173.459ZM643.861 163.058L605.683 105.855ZM636.919 85.0537L720.217 209.861ZM751.453 189.06L713.275 131.857ZM706.334 121.456L668.156 64.2524Z" fill="black"/>
<path d="M147.547 410.94L230.844 535.748M262.081 514.946L223.903 457.743M216.961 447.342L178.783 390.139M210.02 369.338L293.317 494.145M688.98 230.663L650.802 173.459M643.861 163.058L605.683 105.855M636.919 85.0537L720.217 209.861M751.453 189.06L713.275 131.857M706.334 121.456L668.156 64.2524" stroke="black" stroke-width="25"/>
<path d="M511.973 341.603C495.404 366.428 469.641 383.663 440.351 389.514C411.061 395.366 380.644 389.355 355.79 372.804C330.937 356.254 313.683 330.519 307.825 301.262C301.967 272.004 307.985 241.621 324.554 216.795C346.646 183.694 380.997 160.715 420.05 152.913C459.103 145.111 499.66 153.125 532.797 175.192C565.935 197.26 588.94 231.573 596.75 270.583C604.561 309.592 596.538 350.104 574.446 383.205" fill="#CD2E3A"/>
<path d="M449.5 300C460.546 283.449 477.721 271.96 497.248 268.059C516.775 264.158 537.053 268.165 553.622 279.199C570.191 290.232 581.693 307.389 585.598 326.894C589.504 346.399 585.492 366.654 574.446 383.205C552.354 416.306 518.003 439.285 478.95 447.087C439.897 454.889 399.34 446.875 366.203 424.808C333.065 402.74 310.06 368.427 302.249 329.417C294.439 290.407 302.462 249.896 324.554 216.795C313.508 233.345 309.496 253.601 313.402 273.106C317.307 292.611 328.809 309.768 345.378 320.801C361.947 331.835 382.225 335.842 401.752 331.941C421.279 328.04 438.454 316.55 449.5 300Z" fill="#0047A0"/>
</g>
</g>
<defs>
<clipPath id="clip0_18_210">
<rect width="900" height="600" fill="white"/>
</clipPath>
</defs>
</svg>
