<svg width="512" height="337" viewBox="0 0 512 337" fill="none" xmlns="http://www.w3.org/2000/svg">
<g clip-path="url(#clip0_1_2)">
<g filter="url(#filter0_d_1_2)">
<path d="M473.7 1H38.3C17.2 1 0 18.2 0 39.3V298.1C0 319.3 17.2 336.4 38.3 336.4H473.6C494.8 336.4 511.9 319.2 511.9 298.1V39.3C512 18.2 494.8 1 473.7 1ZM256 265.8C202.4 265.8 158.9 222.3 158.9 168.7C158.9 115.1 202.4 71.6 256 71.6C309.6 71.6 353.1 115.1 353.1 168.7C353.1 222.3 309.6 265.8 256 265.8Z" fill="url(#paint0_linear_1_2)" shape-rendering="crispEdges"/>
</g>
<path d="M256 265.8C309.627 265.8 353.1 222.327 353.1 168.7C353.1 115.073 309.627 71.6 256 71.6C202.373 71.6 158.9 115.073 158.9 168.7C158.9 222.327 202.373 265.8 256 265.8Z" fill="url(#paint1_linear_1_2)"/>
</g>
<defs>
<filter id="filter0_d_1_2" x="-4" y="1" width="519.9" height="343.4" filterUnits="userSpaceOnUse" color-interpolation-filters="sRGB">
<feFlood flood-opacity="0" result="BackgroundImageFix"/>
<feColorMatrix in="SourceAlpha" type="matrix" values="0 0 0 0 0 0 0 0 0 0 0 0 0 0 0 0 0 0 127 0" result="hardAlpha"/>
<feOffset dy="4"/>
<feGaussianBlur stdDeviation="2"/>
<feComposite in2="hardAlpha" operator="out"/>
<feColorMatrix type="matrix" values="0 0 0 0 0 0 0 0 0 0 0 0 0 0 0 0 0 0 0.25 0"/>
<feBlend mode="normal" in2="BackgroundImageFix" result="effect1_dropShadow_1_2"/>
<feBlend mode="normal" in="SourceGraphic" in2="effect1_dropShadow_1_2" result="shape"/>
</filter>
<linearGradient id="paint0_linear_1_2" x1="55.3684" y1="-31.9128" x2="456.632" y2="369.35" gradientUnits="userSpaceOnUse">
<stop offset="0.9999" stop-color="#F5F5F5"/>
<stop offset="1" stop-color="white" stop-opacity="0"/>
</linearGradient>
<linearGradient id="paint1_linear_1_2" x1="187.34" y1="100.059" x2="324.66" y2="237.379" gradientUnits="userSpaceOnUse">
<stop offset="0.9999" stop-color="#FF515B"/>
<stop offset="1" stop-color="white" stop-opacity="0"/>
</linearGradient>
<clipPath id="clip0_1_2">
<rect width="512" height="336.1" fill="white"/>
</clipPath>
</defs>
</svg>
